<svg width="377" height="377" viewBox="0 0 377 377" fill="none" xmlns="http://www.w3.org/2000/svg">
<g filter="url(#filter0_d_670_322375)">
<circle cx="188.5" cy="189.5" r="173.5" fill="white"/>
<circle cx="188.5" cy="189.5" r="173" stroke="#F9FAFB"/>
</g>
<g filter="url(#filter1_d_670_322375)">
<circle cx="188.5" cy="189.5" r="141.5" fill="white"/>
<circle cx="188.5" cy="189.5" r="141" stroke="#F9FAFB"/>
</g>
<g filter="url(#filter2_d_670_322375)">
<circle cx="188.5" cy="189.5" r="109.5" fill="white"/>
<circle cx="188.5" cy="189.5" r="109" stroke="#F9FAFB"/>
</g>
<g filter="url(#filter3_d_670_322375)">
<circle cx="188.5" cy="189.5" r="77.5" fill="white"/>
<circle cx="188.5" cy="189.5" r="77" stroke="#F9FAFB"/>
</g>
<g filter="url(#filter4_d_670_322375)">
<circle cx="188.5" cy="189.5" r="45.5" fill="white"/>
<circle cx="188.5" cy="189.5" r="45" stroke="#F9FAFB"/>
</g>
<g style="mix-blend-mode:overlay">
<line x1="179.602" y1="207.248" x2="103.685" y2="340.004" stroke="#9DA4AE"/>
</g>
<g style="mix-blend-mode:overlay">
<line x1="271.438" y1="38.2413" x2="197.605" y2="172.241" stroke="#9DA4AE"/>
</g>
<g style="mix-blend-mode:overlay">
<line x1="95.168" y1="189.5" x2="15.168" y2="189.5" stroke="#9DA4AE"/>
</g>
<g style="mix-blend-mode:overlay">
<line x1="362.168" y1="189.5" x2="282.168" y2="189.5" stroke="#9DA4AE"/>
</g>
<g style="mix-blend-mode:overlay">
<line x1="277.572" y1="337.259" x2="198.739" y2="207.259" stroke="#9DA4AE"/>
</g>
<g style="mix-blend-mode:overlay">
<line x1="153.572" y1="134.258" x2="97.5717" y2="41.2579" stroke="#9DA4AE"/>
</g>
<g style="mix-blend-mode:multiply">
<path fill-rule="evenodd" clip-rule="evenodd" d="M314.532 101.57L317.08 106.31C315.521 108.532 315.707 111.664 317.636 113.669C319.77 115.888 323.23 115.888 325.364 113.669C327.293 111.664 327.479 108.532 325.92 106.31L328.468 101.57C328.615 101.297 328.748 101.049 328.838 100.838C328.93 100.623 329.028 100.335 328.992 100.009C328.945 99.5853 328.729 99.2018 328.396 98.9526C328.14 98.7605 327.85 98.7094 327.625 98.6879C327.404 98.6669 327.13 98.6669 326.83 98.6669L325.12 98.6668C324.933 98.6661 324.697 98.6652 324.474 98.7399C324.282 98.8044 324.104 98.91 323.953 99.0499C323.778 99.2117 323.659 99.423 323.565 99.591L321.5 103.235L319.435 99.591C319.341 99.423 319.222 99.2117 319.047 99.0499C318.896 98.91 318.718 98.8044 318.526 98.7399C318.303 98.6652 318.067 98.6661 317.88 98.6668L316.17 98.6669C315.87 98.6669 315.596 98.6669 315.375 98.6879C315.15 98.7094 314.86 98.7605 314.604 98.9526C314.271 99.2018 314.055 99.5853 314.008 100.009C313.972 100.335 314.07 100.623 314.162 100.838C314.252 101.049 314.385 101.297 314.532 101.57ZM316.474 100.183C316.148 100.183 315.985 100.183 315.89 100.254C315.806 100.316 315.752 100.411 315.74 100.517C315.726 100.638 315.805 100.786 315.963 101.083L318.138 105.172C318.79 104.641 319.531 104.286 320.303 104.107L318.246 100.483C318.184 100.375 318.153 100.32 318.111 100.281C318.073 100.246 318.029 100.22 317.981 100.204C317.926 100.185 317.866 100.185 317.745 100.185L316.474 100.183ZM324.862 105.172C324.21 104.641 323.469 104.286 322.697 104.107L324.754 100.483C324.816 100.375 324.847 100.32 324.889 100.281C324.927 100.246 324.971 100.22 325.019 100.204C325.074 100.185 325.134 100.185 325.255 100.185L326.526 100.183C326.852 100.183 327.015 100.183 327.11 100.254C327.194 100.316 327.248 100.411 327.26 100.517C327.274 100.638 327.195 100.786 327.037 101.083L324.862 105.172ZM321.844 107.09C322.081 107.222 322.229 107.478 322.229 107.758V110.788H322.411C322.813 110.788 323.139 111.127 323.139 111.546C323.139 111.964 322.813 112.303 322.411 112.303H320.589C320.187 112.303 319.861 111.964 319.861 111.546C319.861 111.127 320.187 110.788 320.589 110.788H320.771V109.171C320.441 109.37 320.015 109.27 319.801 108.936C319.578 108.587 319.668 108.117 320.003 107.885L321.096 107.127C321.319 106.972 321.607 106.958 321.844 107.09Z" fill="#E5E7EB"/>
</g>
<g style="mix-blend-mode:multiply">
<path fill-rule="evenodd" clip-rule="evenodd" d="M53.3799 113.485H57.6807C58.08 113.485 58.4245 113.485 58.7083 113.508C59.0078 113.532 59.3057 113.587 59.5924 113.733C60.02 113.95 60.3677 114.298 60.5856 114.726C60.7316 115.012 60.7857 115.31 60.8101 115.61C60.8333 115.894 60.8333 116.238 60.8333 116.637V118.747C60.8333 119.079 60.8333 119.366 60.8171 119.604C60.8001 119.853 60.7626 120.103 60.6603 120.35C60.4296 120.907 59.9872 121.35 59.4303 121.58C59.1834 121.683 58.9335 121.72 58.6836 121.737C58.644 121.74 58.6029 121.742 58.5606 121.744V122.576C58.5606 122.858 58.4039 123.116 58.1539 123.247C57.904 123.378 57.6021 123.359 57.3705 123.198L55.7217 122.051C55.4678 121.875 55.4164 121.843 55.3679 121.821C55.3119 121.795 55.2531 121.777 55.1926 121.766C55.1402 121.756 55.0797 121.753 54.7704 121.753H53.3799C52.9805 121.753 52.636 121.753 52.3522 121.73C52.0527 121.706 51.7548 121.652 51.4682 121.506C51.0405 121.288 50.6928 120.94 50.4749 120.512C50.3289 120.226 50.2749 119.928 50.2504 119.628C50.2272 119.344 50.2272 119 50.2272 118.601V116.637C50.2272 116.238 50.2272 115.894 50.2504 115.61C50.2749 115.31 50.3289 115.012 50.4749 114.726C50.6928 114.298 51.0405 113.95 51.4682 113.733C51.7548 113.587 52.0527 113.532 52.3522 113.508C52.636 113.485 52.9805 113.485 53.3799 113.485Z" fill="#E5E7EB"/>
<path d="M54.1979 106.667H48.5293C47.9195 106.667 47.4162 106.667 47.0062 106.7C46.5803 106.735 46.1889 106.81 45.8212 106.997C45.251 107.287 44.7875 107.751 44.4969 108.321C44.3096 108.689 44.2349 109.08 44.2001 109.506C44.1666 109.916 44.1666 110.419 44.1666 111.029L44.1666 114.637C44.1665 114.972 44.1665 115.219 44.1986 115.439C44.3927 116.764 45.4331 117.804 46.7578 117.998C46.8119 118.006 46.8457 118.027 46.8603 118.039L46.8602 119.234C46.8602 119.441 46.8602 119.643 46.8746 119.806C46.8874 119.951 46.9209 120.25 47.1339 120.499C47.3713 120.776 47.7272 120.922 48.0907 120.892C48.4168 120.865 48.6513 120.675 48.7621 120.581C48.7936 120.554 48.8263 120.525 48.8599 120.494C48.7897 120.221 48.7579 119.967 48.7403 119.752C48.7119 119.404 48.712 119.003 48.7121 118.633V116.605C48.712 116.235 48.7119 115.834 48.7403 115.486C48.7724 115.093 48.8519 114.574 49.125 114.038C49.4881 113.325 50.0676 112.746 50.7803 112.383C51.3162 112.11 51.8356 112.03 52.2288 111.998C52.5763 111.97 52.9776 111.97 53.3478 111.97H57.7128C57.9898 111.97 58.2843 111.97 58.5606 111.981V111.029C58.5606 110.419 58.5606 109.916 58.5271 109.506C58.4923 109.08 58.4176 108.689 58.2303 108.321C57.9398 107.751 57.4762 107.287 56.906 106.997C56.5383 106.81 56.1469 106.735 55.7211 106.7C55.3111 106.667 54.8078 106.667 54.1979 106.667Z" fill="#E5E7EB"/>
</g>
<g style="mix-blend-mode:multiply">
<path fill-rule="evenodd" clip-rule="evenodd" d="M57.684 262.812C57.6882 262.82 57.6922 262.829 57.6961 262.838C57.7378 262.936 57.8176 263.013 57.9182 263.053L58.9444 263.464C59.4296 263.658 59.815 264.031 60.016 264.499C60.2169 264.968 60.2169 265.494 60.016 265.963L59.5911 266.954C59.5491 267.052 59.5494 267.161 59.5909 267.257L59.5916 267.259L60.0155 268.249C60.1152 268.481 60.1665 268.73 60.1665 268.981C60.1665 269.232 60.1153 269.481 60.0158 269.713C59.9162 269.945 59.7703 270.156 59.5864 270.334C59.4025 270.511 59.1841 270.652 58.9439 270.748L57.918 271.159C57.8173 271.199 57.7367 271.276 57.6949 271.374L57.546 271.721L58.1991 276.476C58.2387 276.764 58.1039 277.049 57.8522 277.209C57.6005 277.369 57.2763 277.375 57.0181 277.225L53.5001 275.187L49.982 277.225C49.7238 277.375 49.3996 277.369 49.1479 277.209C48.8962 277.049 48.7614 276.764 48.801 276.476L49.4546 271.723L49.3047 271.374C49.263 271.276 49.183 271.199 49.0825 271.158L48.0562 270.747C47.5712 270.553 47.1859 270.181 46.9849 269.713C46.7838 269.245 46.7836 268.718 46.9841 268.25L47.409 267.259C47.4505 267.162 47.4505 267.052 47.4087 266.955L46.9843 265.963C46.8848 265.731 46.8334 265.481 46.8334 265.23C46.8333 264.979 46.8845 264.73 46.9841 264.498C47.0836 264.266 47.2295 264.055 47.4135 263.878C47.5974 263.7 47.8157 263.559 48.056 263.463L49.0818 263.053C49.1824 263.012 49.2628 262.935 49.3047 262.838L49.7296 261.847C49.9306 261.379 50.316 261.006 50.8012 260.812C51.2863 260.618 51.8315 260.618 52.3166 260.812L53.3418 261.222C53.4425 261.263 53.5559 261.263 53.6565 261.222L54.6841 260.813L54.6848 260.813C55.1697 260.619 55.7144 260.619 56.1992 260.813C56.6843 261.007 57.0697 261.379 57.2707 261.848L57.684 262.812ZM50.8061 273.402L50.5702 275.118L52.7737 273.841L52.7965 273.827C52.8791 273.778 53.0504 273.677 53.2477 273.635C53.414 273.6 53.5862 273.6 53.7524 273.635C53.9497 273.677 54.121 273.778 54.2036 273.827L54.2264 273.841L56.4302 275.118L56.1944 273.401C55.7103 273.594 55.1668 273.593 54.683 273.4L53.6578 272.99C53.557 272.949 53.4437 272.949 53.343 272.99L52.3156 273.4C51.8324 273.593 51.2897 273.594 50.8061 273.402Z" fill="#E5E7EB"/>
</g>
<g style="mix-blend-mode:multiply">
<path fill-rule="evenodd" clip-rule="evenodd" d="M330.613 265.918C330.707 265.561 331.079 265.346 331.443 265.438C332.913 265.808 334 267.112 334 268.666V270C334 270.368 333.695 270.666 333.318 270.666C332.942 270.666 332.637 270.368 332.637 270V268.666C332.637 267.735 331.986 266.951 331.103 266.729C330.739 266.638 330.519 266.274 330.613 265.918Z" fill="#E5E7EB"/>
<path fill-rule="evenodd" clip-rule="evenodd" d="M328.255 257.944C328.397 257.602 328.794 257.438 329.143 257.576C330.391 258.07 331.273 259.267 331.273 260.667C331.273 262.067 330.391 263.263 329.143 263.757C328.794 263.895 328.397 263.731 328.255 263.39C328.114 263.048 328.283 262.66 328.631 262.521C329.382 262.224 329.91 261.505 329.91 260.667C329.91 259.828 329.382 259.109 328.631 258.812C328.283 258.674 328.114 258.285 328.255 257.944Z" fill="#E5E7EB"/>
<path fill-rule="evenodd" clip-rule="evenodd" d="M323.215 265.333C324.27 265.333 325.325 265.333 326.379 265.333C327.123 265.333 327.63 265.333 328.065 265.447C329.241 265.755 330.16 266.653 330.475 267.804C330.632 268.377 330.587 268.989 330.592 269.576C330.592 269.647 330.593 269.791 330.557 269.925C330.462 270.27 330.187 270.54 329.834 270.632C329.697 270.668 329.549 270.667 329.476 270.666C326.358 270.642 323.237 270.642 320.118 270.666C320.045 270.667 319.898 270.668 319.761 270.632C319.408 270.54 319.132 270.27 319.038 269.925C319.001 269.791 319.002 269.647 319.003 269.576C319.007 268.99 318.962 268.376 319.119 267.804C319.434 266.653 320.353 265.755 321.529 265.447C321.964 265.333 322.471 265.333 323.215 265.333Z" fill="#E5E7EB"/>
<path fill-rule="evenodd" clip-rule="evenodd" d="M321.389 260.667C321.389 258.826 322.915 257.333 324.797 257.333C326.68 257.333 328.206 258.826 328.206 260.667C328.206 262.508 326.68 264 324.797 264C322.915 264 321.389 262.508 321.389 260.667Z" fill="#E5E7EB"/>
</g>
<g style="mix-blend-mode:multiply">
<path fill-rule="evenodd" clip-rule="evenodd" d="M183.925 28.1667C183.935 28.1667 183.945 28.1667 183.955 28.1667C184.373 28.1667 184.712 28.4931 184.712 28.8958C184.712 29.2986 184.373 29.625 183.955 29.625C183.738 29.625 183.673 29.6256 183.622 29.6294C182.934 29.6806 182.369 30.1729 182.247 30.8267C182.238 30.8753 182.231 30.938 182.21 31.145L182.011 33.0573C183.466 32.2189 185.38 32.403 186.633 33.6095C187.016 33.978 187.3 34.4058 187.484 34.8621C188.148 34.6848 188.852 34.6849 189.516 34.8622C189.7 34.4058 189.984 33.978 190.367 33.6095C191.621 32.403 193.534 32.2189 194.989 33.0573L194.791 31.145C194.769 30.938 194.762 30.8753 194.753 30.8267C194.632 30.1729 194.066 29.6806 193.378 29.6294C193.327 29.6256 193.262 29.625 193.046 29.625C192.627 29.625 192.288 29.2986 192.288 28.8958C192.288 28.4931 192.627 28.1667 193.046 28.1667L193.075 28.1667C193.249 28.1666 193.378 28.1666 193.495 28.1754C194.871 28.2779 196.002 29.2624 196.244 30.5701C196.265 30.6816 196.278 30.8052 196.295 30.9716L196.766 35.4992C196.81 35.7235 196.833 35.951 196.833 36.1786C196.833 36.1853 196.833 36.1919 196.833 36.1986C196.83 37.1279 196.461 38.0564 195.724 38.7655C194.245 40.1893 191.846 40.1893 190.367 38.7655C189.661 38.0855 189.291 37.2036 189.26 36.3127C188.769 36.1458 188.231 36.1458 187.74 36.3127C187.709 37.2036 187.34 38.0854 186.633 38.7655C185.154 40.1893 182.755 40.1893 181.276 38.7655C180.54 38.0564 180.17 37.1279 180.167 36.1986C180.167 36.1919 180.167 36.1853 180.167 36.1786C180.167 35.951 180.19 35.7235 180.235 35.4992L180.702 30.9999C180.703 30.9903 180.704 30.9809 180.705 30.9715C180.722 30.8052 180.735 30.6816 180.756 30.5701C180.999 29.2624 182.129 28.2779 183.505 28.1754C183.622 28.1666 183.751 28.1666 183.925 28.1667Z" fill="#E5E7EB"/>
</g>
<g style="mix-blend-mode:multiply">
<path d="M190.084 339.518C190.128 339.185 189.936 338.863 189.612 338.729C189.288 338.595 188.91 338.681 188.684 338.939L181.584 347.057C181.462 347.197 181.337 347.339 181.247 347.464C181.161 347.582 181.005 347.814 181 348.119C180.995 348.468 181.158 348.801 181.443 349.02C181.692 349.212 181.979 349.246 182.129 349.259C182.288 349.273 182.482 349.273 182.673 349.273L187.599 349.273L186.916 354.482C186.872 354.815 187.064 355.137 187.388 355.271C187.712 355.405 188.09 355.319 188.316 355.061L195.416 346.943C195.538 346.803 195.663 346.661 195.753 346.536C195.839 346.418 195.995 346.186 196 345.881C196.005 345.532 195.842 345.199 195.557 344.98C195.308 344.788 195.021 344.754 194.871 344.741C194.712 344.727 194.518 344.727 194.326 344.727L189.401 344.727L190.084 339.518Z" fill="#E5E7EB"/>
</g>
<defs>
<filter id="filter0_d_670_322375" x="-15" y="-14" width="407" height="407" filterUnits="userSpaceOnUse" color-interpolation-filters="sRGB">
<feFlood flood-opacity="0" result="BackgroundImageFix"/>
<feColorMatrix in="SourceAlpha" type="matrix" values="0 0 0 0 0 0 0 0 0 0 0 0 0 0 0 0 0 0 127 0" result="hardAlpha"/>
<feOffset/>
<feGaussianBlur stdDeviation="15"/>
<feComposite in2="hardAlpha" operator="out"/>
<feColorMatrix type="matrix" values="0 0 0 0 0.3125 0 0 0 0 0.3125 0 0 0 0 0.3125 0 0 0 0.06 0"/>
<feBlend mode="normal" in2="BackgroundImageFix" result="effect1_dropShadow_670_322375"/>
<feBlend mode="normal" in="SourceGraphic" in2="effect1_dropShadow_670_322375" result="shape"/>
</filter>
<filter id="filter1_d_670_322375" x="17" y="18" width="343" height="343" filterUnits="userSpaceOnUse" color-interpolation-filters="sRGB">
<feFlood flood-opacity="0" result="BackgroundImageFix"/>
<feColorMatrix in="SourceAlpha" type="matrix" values="0 0 0 0 0 0 0 0 0 0 0 0 0 0 0 0 0 0 127 0" result="hardAlpha"/>
<feOffset/>
<feGaussianBlur stdDeviation="15"/>
<feComposite in2="hardAlpha" operator="out"/>
<feColorMatrix type="matrix" values="0 0 0 0 0.3125 0 0 0 0 0.3125 0 0 0 0 0.3125 0 0 0 0.06 0"/>
<feBlend mode="normal" in2="BackgroundImageFix" result="effect1_dropShadow_670_322375"/>
<feBlend mode="normal" in="SourceGraphic" in2="effect1_dropShadow_670_322375" result="shape"/>
</filter>
<filter id="filter2_d_670_322375" x="49" y="50" width="279" height="279" filterUnits="userSpaceOnUse" color-interpolation-filters="sRGB">
<feFlood flood-opacity="0" result="BackgroundImageFix"/>
<feColorMatrix in="SourceAlpha" type="matrix" values="0 0 0 0 0 0 0 0 0 0 0 0 0 0 0 0 0 0 127 0" result="hardAlpha"/>
<feOffset/>
<feGaussianBlur stdDeviation="15"/>
<feComposite in2="hardAlpha" operator="out"/>
<feColorMatrix type="matrix" values="0 0 0 0 0.3125 0 0 0 0 0.3125 0 0 0 0 0.3125 0 0 0 0.06 0"/>
<feBlend mode="normal" in2="BackgroundImageFix" result="effect1_dropShadow_670_322375"/>
<feBlend mode="normal" in="SourceGraphic" in2="effect1_dropShadow_670_322375" result="shape"/>
</filter>
<filter id="filter3_d_670_322375" x="81" y="82" width="215" height="215" filterUnits="userSpaceOnUse" color-interpolation-filters="sRGB">
<feFlood flood-opacity="0" result="BackgroundImageFix"/>
<feColorMatrix in="SourceAlpha" type="matrix" values="0 0 0 0 0 0 0 0 0 0 0 0 0 0 0 0 0 0 127 0" result="hardAlpha"/>
<feOffset/>
<feGaussianBlur stdDeviation="15"/>
<feComposite in2="hardAlpha" operator="out"/>
<feColorMatrix type="matrix" values="0 0 0 0 0.3125 0 0 0 0 0.3125 0 0 0 0 0.3125 0 0 0 0.06 0"/>
<feBlend mode="normal" in2="BackgroundImageFix" result="effect1_dropShadow_670_322375"/>
<feBlend mode="normal" in="SourceGraphic" in2="effect1_dropShadow_670_322375" result="shape"/>
</filter>
<filter id="filter4_d_670_322375" x="113" y="114" width="151" height="151" filterUnits="userSpaceOnUse" color-interpolation-filters="sRGB">
<feFlood flood-opacity="0" result="BackgroundImageFix"/>
<feColorMatrix in="SourceAlpha" type="matrix" values="0 0 0 0 0 0 0 0 0 0 0 0 0 0 0 0 0 0 127 0" result="hardAlpha"/>
<feOffset/>
<feGaussianBlur stdDeviation="15"/>
<feComposite in2="hardAlpha" operator="out"/>
<feColorMatrix type="matrix" values="0 0 0 0 0.3125 0 0 0 0 0.3125 0 0 0 0 0.3125 0 0 0 0.06 0"/>
<feBlend mode="normal" in2="BackgroundImageFix" result="effect1_dropShadow_670_322375"/>
<feBlend mode="normal" in="SourceGraphic" in2="effect1_dropShadow_670_322375" result="shape"/>
</filter>
</defs>
</svg>
