<svg width="24" height="24" viewBox="0 0 24 24" fill="none" xmlns="http://www.w3.org/2000/svg">
<path fill-rule="evenodd" clip-rule="evenodd" d="M4.92094 4.95805C7.16036 3.04464 10.0441 3.39335 11.994 5.09742C13.9417 3.3927 16.7947 3.06872 19.059 4.95074C21.2282 6.75365 21.7266 9.66997 20.5371 12.0159C19.5388 11.3062 18.3182 10.8888 17 10.8888C13.6249 10.8888 10.8889 13.6249 10.8889 16.9999C10.8889 18.1633 11.214 19.2507 11.7782 20.1764C11.7306 20.1681 11.6835 20.157 11.637 20.1431C11.4621 20.0909 11.3312 20.0057 11.24 19.937C11.1639 19.8796 11.0845 19.8092 11.0206 19.7527L11.0206 19.7526L11.0076 19.7411C10.3287 19.1399 8.95211 17.9092 7.5723 16.6069C6.20846 15.3196 4.7893 13.9139 4.06219 12.9783C2.14668 10.5134 2.49862 7.02773 4.92094 4.95805Z" fill="currentColor"/>
<path fill-rule="evenodd" clip-rule="evenodd" d="M17 22C19.7614 22 22 19.7614 22 17C22 14.2386 19.7614 12 17 12C14.2386 12 12 14.2386 12 17C12 19.7614 14.2386 22 17 22ZM17.5 14.2222C17.5 13.9461 17.2761 13.7222 17 13.7222C16.7239 13.7222 16.5 13.9461 16.5 14.2222V17.374V17.5811L16.6464 17.7275L18.3131 19.3942C18.5084 19.5895 18.825 19.5895 19.0202 19.3942C19.2155 19.1989 19.2155 18.8824 19.0202 18.6871L17.5 17.1669V14.2222Z" fill="currentColor"/>
</svg>
