<svg width="60" height="32" viewBox="0 0 60 32">
<g clip-path="url(#clip0_1196_457078)">
<path d="M44 2.02276C44 0.905621 44.9092 -0.0131982 46.0174 0.12764C49.5169 0.572363 52.7926 2.16523 55.3137 4.68629C58.3143 7.68687 60 11.7565 60 16C60 20.2435 58.3143 24.3131 55.3137 27.3137C52.7926 29.8348 49.5169 31.4276 46.0174 31.8724C44.9092 32.0132 44 31.0944 44 29.9772C44 28.8601 44.912 27.9719 46.0132 27.7838C48.4366 27.3698 50.6915 26.2147 52.4531 24.4531C54.695 22.2112 55.9545 19.1705 55.9545 16C55.9545 12.8295 54.695 9.7888 52.4531 7.54691C50.6914 5.78529 48.4366 4.63024 46.0132 4.2162C44.912 4.02807 44 3.1399 44 2.02276Z" fill="#2E90FA"/>
<path d="M44 29.9772C44 31.0944 43.0908 32.0132 41.9826 31.8724C38.4831 31.4276 35.2074 29.8348 32.6863 27.3137C29.6857 24.3131 28 20.2435 28 16C28 11.7565 29.6857 7.68688 32.6863 4.68629C35.2074 2.16523 38.4831 0.572366 41.9826 0.127641C43.0908 -0.0131971 44 0.905621 44 2.02276C44 3.1399 43.088 4.02807 41.9868 4.21621C39.5634 4.63024 37.3085 5.78529 35.5469 7.54691C33.305 9.78881 32.0455 12.8295 32.0455 16C32.0455 19.1705 33.305 22.2112 35.5469 24.4531C37.3086 26.2147 39.5634 27.3698 41.9868 27.7838C43.088 27.9719 44 28.8601 44 29.9772Z" fill="#F79009"/>
<path d="M19.0001 15.975C19.0001 17.0934 18.0823 18.0227 16.9921 17.7732C15.3555 17.3985 13.8423 16.5701 12.6361 15.364C10.9483 13.6761 10.0001 11.3869 10.0001 9C10.0001 6.61305 10.9483 4.32387 12.6361 2.63604C13.8423 1.4299 15.3555 0.601454 16.9921 0.226835C18.0823 -0.0227145 19.0001 0.906622 19.0001 2.025C19.0001 3.14338 18.0572 4.01361 17.0311 4.45848C16.4651 4.70386 15.9446 5.05517 15.4999 5.49982C14.5716 6.42813 14.0501 7.68718 14.0501 9C14.0501 10.3128 14.5716 11.5719 15.4999 12.5002C15.9446 12.9448 16.4651 13.2961 17.0311 13.5415C18.0572 13.9864 19.0001 14.8566 19.0001 15.975Z" fill="#EE46BC"/>
<path d="M-6.98289e-07 2.025C-7.47175e-07 0.906622 0.917781 -0.0226616 2.00797 0.226856C2.49752 0.338901 2.97798 0.491989 3.44415 0.685083C4.53608 1.13738 5.52823 1.80031 6.36396 2.63604C7.19969 3.47177 7.86262 4.46392 8.31492 5.55585C8.76721 6.64778 9 7.8181 9 9C9 10.1819 8.76721 11.3522 8.31491 12.4442C7.86262 13.5361 7.19969 14.5282 6.36396 15.364C5.52823 16.1997 4.53608 16.8626 3.44415 17.3149C2.97798 17.508 2.49752 17.6611 2.00797 17.7731C0.917781 18.0227 -9.93304e-07 17.0934 -1.04219e-06 15.975L-1.04574e-06 15.8938C-1.09266e-06 14.8203 0.902445 13.984 1.89428 13.5732C2.49484 13.3244 3.04053 12.9598 3.50018 12.5002C3.95983 12.0405 4.32444 11.4948 4.5732 10.8943C4.82196 10.2937 4.95 9.65004 4.95 9C4.95 8.34996 4.82196 7.70628 4.5732 7.10572C4.32444 6.50515 3.95983 5.95947 3.50018 5.49982C3.04053 5.04017 2.49484 4.67556 1.89428 4.4268C0.902444 4.01596 -6.47816e-07 3.17971 -6.94742e-07 2.10615L-6.98289e-07 2.025Z" fill="#7A5AF8"/>
<path d="M-6.98289e-07 16.025C-7.47175e-07 14.9066 0.917781 13.9773 2.00797 14.2269C2.49752 14.3389 2.97798 14.492 3.44415 14.6851C4.53608 15.1374 5.52823 15.8003 6.36396 16.636C7.19969 17.4718 7.86262 18.4639 8.31492 19.5558C8.76721 20.6478 9 21.8181 9 23C9 24.1819 8.76721 25.3522 8.31491 26.4442C7.86262 27.5361 7.19969 28.5282 6.36396 29.364C5.52823 30.1997 4.53608 30.8626 3.44415 31.3149C2.97798 31.508 2.49752 31.6611 2.00797 31.7731C0.917781 32.0227 -9.93304e-07 31.0934 -1.04219e-06 29.975L-1.04574e-06 29.8938C-1.09266e-06 28.8203 0.902445 27.984 1.89428 27.5732C2.49484 27.3244 3.04053 26.9598 3.50018 26.5002C3.95983 26.0405 4.32444 25.4948 4.5732 24.8943C4.82196 24.2937 4.95 23.65 4.95 23C4.95 22.35 4.82196 21.7063 4.5732 21.1057C4.32444 20.5052 3.95983 19.9595 3.50018 19.4998C3.04053 19.0402 2.49484 18.6756 1.89428 18.4268C0.902444 18.016 -6.47816e-07 17.1797 -6.94742e-07 16.1062L-6.98289e-07 16.025Z" fill="#FF4405"/>
<path d="M28 23C28 27.9706 23.9706 32 19 32C14.0294 32 10 27.9706 10 23C10 18.0294 14.0294 14 19 14C23.9706 14 28 18.0294 28 23ZM14.05 23C14.05 25.7338 16.2662 27.95 19 27.95C21.7338 27.95 23.95 25.7338 23.95 23C23.95 20.2662 21.7338 18.05 19 18.05C16.2662 18.05 14.05 20.2662 14.05 23Z" fill="#12B76A"/>
</g>
<defs>
<clipPath id="clip0_1196_457078">
<rect width="60" height="32" fill="currentColor"/>
</clipPath>
</defs>
</svg>
