<svg width="24" height="24" viewBox="0 0 20 20" fill="none" xmlns="http://www.w3.org/2000/svg">
<path fill-rule="evenodd" clip-rule="evenodd" d="M10 0.833252C8.15909 0.833252 6.66671 2.32564 6.66671 4.16658V9.99992C6.66671 11.8409 8.15909 13.3333 10 13.3333C11.841 13.3333 13.3334 11.8409 13.3334 9.99992V4.16658C13.3334 2.32564 11.841 0.833252 10 0.833252Z" fill="currentColor"/>
<path d="M5.00004 8.33325C5.00004 7.87301 4.62694 7.49992 4.16671 7.49992C3.70647 7.49992 3.33337 7.87301 3.33337 8.33325V9.99992C3.33337 13.4001 5.87892 16.2058 9.16827 16.6152C9.16724 16.6322 9.16671 16.6493 9.16671 16.6666V17.4999H6.66671C6.20647 17.4999 5.83337 17.873 5.83337 18.3333C5.83337 18.7935 6.20647 19.1666 6.66671 19.1666H13.3334C13.7936 19.1666 14.1667 18.7935 14.1667 18.3333C14.1667 17.873 13.7936 17.4999 13.3334 17.4999H10.8334V16.6666C10.8334 16.6493 10.8328 16.6322 10.8318 16.6152C14.1212 16.2058 16.6667 13.4001 16.6667 9.99992V8.33325C16.6667 7.87301 16.2936 7.49992 15.8334 7.49992C15.3731 7.49992 15 7.87301 15 8.33325V9.99992C15 12.7613 12.7615 14.9999 10 14.9999C7.23862 14.9999 5.00004 12.7613 5.00004 9.99992V8.33325Z" fill="currentColor"/>
</svg>
