<svg width="24" height="24" viewBox="0 0 14 14" fill="none" xmlns="http://www.w3.org/2000/svg">
<path d="M1.66699 7.66667H12.0584C12.3667 7.66667 12.5208 7.66667 12.6089 7.60201C12.6857 7.54564 12.7346 7.45911 12.7435 7.36427C12.7536 7.25551 12.6743 7.1233 12.5157 6.85894L11.165 4.60773C11.1051 4.50796 11.0752 4.45808 11.0635 4.40483C11.0531 4.35773 11.0531 4.30894 11.0635 4.26184C11.0752 4.20859 11.1051 4.1587 11.165 4.05894L12.5157 1.80773C12.6743 1.54335 12.7536 1.41116 12.7435 1.3024C12.7346 1.20756 12.6857 1.12103 12.6089 1.06465C12.5208 1 12.3667 1 12.0584 1H1.66699L1.66699 13" stroke="currentColor" stroke-width="1.66667" stroke-linecap="round" stroke-linejoin="round"/>
</svg>
